HIERARCHY
ROOT hip
{
	OFFSET 0.000000 0.000000 0.000000 
	CHANNELS 6 Xposition Yposition Zposition Xrotation Zrotation Yrotation
	JOINT abdomen
	{
		OFFSET 0.000000 3.402643 0.000000 
		CHANNELS 3 Xrotation Zrotation Yrotation
		JOINT chest
		{
			OFFSET 0.000000 8.438565 -0.680529 
			CHANNELS 3 Xrotation Zrotation Yrotation
			JOINT neck
			{
				OFFSET 0.000000 10.207942 -0.272212 
				CHANNELS 3 Xrotation Zrotation Yrotation
				JOINT head
				{
					OFFSET 0.000000 3.130431 0.000000 
					CHANNELS 3 Xrotation Zrotation Yrotation
					End Site
					{
						OFFSET 0.000000 3.130435 0.000000 
					}
				}
			}
			JOINT lCollar
			{
				OFFSET 3.470700 6.669187 -0.816635 
				CHANNELS 3 Yrotation Zrotation Xrotation
				JOINT lShldr
				{
					OFFSET 3.198488 0.000000 0.000000 
					CHANNELS 3 Zrotation Yrotation Xrotation
					JOINT lForeArm
					{
						OFFSET 10.139888 0.000000 0.000000 
						CHANNELS 3 Yrotation Zrotation Xrotation
						JOINT lHand
						{
							OFFSET 8.370511 0.000000 0.000000 
							CHANNELS 3 Zrotation Yrotation Xrotation
							End Site
							{
								OFFSET 4.083176 0.000000 0.000000 
							}
						}
					}
				}
			}
			JOINT rCollar
			{
				OFFSET -3.470700 6.669187 -0.816635 
				CHANNELS 3 Yrotation Zrotation Xrotation
				JOINT rShldr
				{
					OFFSET -3.198488 0.000000 0.000000 
					CHANNELS 3 Zrotation Yrotation Xrotation
					JOINT rForeArm
					{
						OFFSET -10.139888 0.000000 0.000000 
						CHANNELS 3 Yrotation Zrotation Xrotation
						JOINT rHand
						{
							OFFSET -8.370511 0.000000 0.000000 
							CHANNELS 3 Zrotation Yrotation Xrotation
							End Site
							{
								OFFSET -4.083176 0.000000 0.000000 
							}
						}
					}
				}
			}
		}
	}
	JOINT lThigh
	{
		OFFSET 5.308129 -1.633274 1.361059 
		CHANNELS 3 Xrotation Zrotation Yrotation
		JOINT lShin
		{
			OFFSET -2.041588 -20.007561 0.000000 
			CHANNELS 3 Xrotation Zrotation Yrotation
			JOINT lFoot
			{
				OFFSET 0.000000 -19.190928 -1.224953 
				CHANNELS 3 Xrotation Yrotation Zrotation
				End Site
				{
					OFFSET 0.000000 -2.449906 4.627600 
				}
			}
		}
	}
	JOINT rThigh
	{
		OFFSET -5.308129 -1.633274 1.361059 
		CHANNELS 3 Xrotation Zrotation Yrotation
		JOINT rShin
		{
			OFFSET 2.041588 -20.007561 0.000000 
			CHANNELS 3 Xrotation Zrotation Yrotation
			JOINT rFoot
			{
				OFFSET 0.000000 -19.190928 -1.224953 
				CHANNELS 3 Xrotation Yrotation Zrotation
				End Site
				{
					OFFSET 0.000000 -2.449906 4.627600 
				}
			}
		}
	}
}
MOTION
Frames: 6
Frame Time: 0.016667
-0.651962 28.380701 -1.256261 -11.360058 -0.117158 1.289060 29.082878 -10.599129 -7.294702 -19.303576 11.755754 -1.085896 -6.066178 -1.796664 -0.879393 41.258610 -0.615233 0.107416 1.992188 -2.001953 0.000341 35.999603 -113.211479 -93.746460 -90.085640 0.415659 31.055149 -33.920700 1.466649 -1.056556 -2.001953 1.992188 0.000000 80.134651 11.041035 2.333052 46.515617 -2.384199 66.414009 7.671248 13.356090 2.118384 -81.614975 25.425608 14.473599 117.071831 2.182908 -3.595802 72.529312 -43.299679 55.136444 -67.701469 -20.994200 -13.052164 127.146774 -2.919955 3.119209 17.289808 5.631263 8.498034 
-0.200956 28.085882 -2.081040 -11.649177 0.263669 0.263714 28.935854 -11.040908 -7.056869 -18.869310 11.698619 -0.587964 -5.887456 -1.376615 -1.270103 41.330746 -0.732417 -0.205186 1.992188 -2.001953 0.000341 35.574848 -112.838142 -94.200470 -88.340904 0.122192 27.460047 -35.212975 1.594105 -1.196208 -2.001953 1.992188 0.000000 80.742943 10.675667 0.388721 46.178856 -2.543022 69.318077 7.300692 14.886272 2.266226 -82.493591 24.859631 11.687932 116.174278 2.105928 -3.637215 72.562584 -42.277401 54.776829 -66.831299 -21.140053 -13.197378 125.417534 -2.812447 3.210125 19.226635 6.167418 8.087399 
0.231721 27.825241 -2.883657 -11.921035 0.576130 -0.693324 28.734701 -11.404442 -6.855815 -18.430599 11.630816 -0.158948 -5.636267 -0.976167 -1.631122 41.403725 -0.849578 -0.488372 1.992188 -2.001953 0.000341 35.329262 -112.495956 -94.620567 -86.962463 -0.065928 24.042419 -36.419224 2.650684 -2.099314 -2.001953 1.992188 0.000000 81.340149 10.432648 -1.489542 45.884899 -2.653931 71.996727 6.901565 16.236841 2.354132 -82.900841 24.223402 9.139392 115.051216 2.056294 -3.667020 72.216354 -41.210636 53.823437 -65.838013 -21.209915 -13.505635 123.591454 -2.714791 3.268959 20.896112 6.680713 7.680805 
0.664370 27.564621 -3.686224 -12.203050 0.878542 -1.650496 28.530972 -11.768139 -6.655003 -17.983118 11.572140 0.270066 -5.400328 -0.566067 -1.982614 41.478161 -0.976472 -0.781469 1.992188 -2.001953 0.000341 35.099087 -112.161842 -95.059334 -85.598640 -0.340945 20.636251 -37.632679 3.701982 -3.021391 -2.001953 1.992188 0.000000 81.936584 10.208163 -3.379478 45.583759 -2.775102 74.683472 6.505677 17.588306 2.434416 -83.291107 23.574553 6.574317 113.938004 1.986216 -3.717220 71.898918 -40.136101 52.897507 -64.860008 -21.258013 -13.792853 121.755455 -2.626994 3.322279 22.543871 7.179953 7.291661 
1.082662 27.330109 -4.471193 -12.481589 1.121936 -2.549295 28.282866 -12.053659 -6.483083 -17.530928 11.512999 0.628194 -5.118742 -0.204914 -2.294942 41.532543 -1.064286 -1.015813 1.992188 -2.001953 0.000341 34.967945 -111.799606 -95.507126 -84.425987 -0.520019 17.468775 -38.655201 5.253538 -4.460915 -2.001953 1.992188 0.000000 82.498329 10.046890 -5.146363 45.403717 -2.877526 77.197235 6.149764 18.834856 2.475766 -83.260635 22.919540 4.250308 112.670486 1.900338 -3.730397 71.308525 -39.032345 51.523926 -63.777916 -21.258890 -14.191589 119.821693 -2.518189 3.399481 23.984722 7.647097 6.856738 
1.500935 27.095594 -5.256128 -12.766952 1.354979 -3.438385 28.035152 -12.339030 -6.318820 -17.091236 11.453459 0.976755 -4.841093 0.156088 -2.607412 41.587643 -1.152069 -1.250336 1.992188 -2.001953 0.000341 34.853664 -111.445953 -95.982674 -83.265419 -0.765170 14.309307 -39.717171 6.781732 -5.927094 -2.001953 1.992188 0.000000 83.074554 9.910526 -6.921576 45.215919 -2.984855 79.722107 5.799330 20.070967 2.521472 -83.193092 22.271738 1.915914 111.381470 1.818276 -3.790521 70.747192 -37.926083 50.143433 -62.681732 -21.238068 -14.552858 117.888451 -2.382772 3.492951 25.430168 8.122285 6.434208 
